PathFileType	4	(X/Y/Z)	/Users/itak/Documents/Research/Walk-IL/dataset/trc/00470_00167.trc
DataRate	CameraRate	NumFrames	NumMarkers	Units	OrigDataRate	OrigDataStartFrame	OrigNumFrames
100.000000	100.000000	4	53	mm	100.000000	316	632
Frame#	Time	RPSI			LPSI			L3			STRN			T10			C7			CLAV			RBAK			LBAK			LSHO			LUPA			LAEL			LAOL			LWTS			LWPS			LFRA			LIFD			LHPS			LHTS			RSHO			RUPA			RAEL			RAOL			RWTS			RWPS			RFRA			RIFD			RHTS			RHPS			RBHD			LFHD			RFHD			LBHD			LHIP			RHIP			RASI			LASI			LKNE			LTHI			LANK			LTIP			LTOE			LMT1			LMT5			LHEE			RKNE			RTHI			RANK			RTIP			RTOE			RMT1			RMT5			RHEE			
		X1	Y1	Z1	X2	Y2	Z2	X3	Y3	Z3	X4	Y4	Z4	X5	Y5	Z5	X6	Y6	Z6	X7	Y7	Z7	X8	Y8	Z8	X9	Y9	Z9	X10	Y10	Z10	X11	Y11	Z11	X12	Y12	Z12	X13	Y13	Z13	X14	Y14	Z14	X15	Y15	Z15	X16	Y16	Z16	X17	Y17	Z17	X18	Y18	Z18	X19	Y19	Z19	X20	Y20	Z20	X21	Y21	Z21	X22	Y22	Z22	X23	Y23	Z23	X24	Y24	Z24	X25	Y25	Z25	X26	Y26	Z26	X27	Y27	Z27	X28	Y28	Z28	X29	Y29	Z29	X30	Y30	Z30	X31	Y31	Z31	X32	Y32	Z32	X33	Y33	Z33	X34	Y34	Z34	X35	Y35	Z35	X36	Y36	Z36	X37	Y37	Z37	X38	Y38	Z38	X39	Y39	Z39	X40	Y40	Z40	X41	Y41	Z41	X42	Y42	Z42	X43	Y43	Z43	X44	Y44	Z44	X45	Y45	Z45	X46	Y46	Z46	X47	Y47	Z47	X48	Y48	Z48	X49	Y49	Z49	X50	Y50	Z50	X51	Y51	Z51	X52	Y52	Z52	X53	Y53	Z53	

317	3.16	566.259521484375	985.8778686523438	-572.6290893554688	644.9087524414062	1001.978515625	-452.6554260253906	561.197998046875	1087.824340820312	-525.7338256835938	326.9118347167969	1252.139770507812	-347.5899353027344	549.4375610351562	1208.278198242188	-540.600341796875	459.3942565917969	1468.335693359375	-501.04296875	345.4722900390625	1367.58740234375	-366.7149353027344	455.4842224121094	1349.433959960938	-614.586181640625	556.16845703125	1428.036987304688	-455.62548828125	537.5255737304688	1443.438110351562	-329.2991027832031	634.9583740234375	1338.090087890625	-274.0518188476562	672.7450561523438	1130.40673828125	-230.9590759277344	677.429443359375	1102.745239257812	-330.7573547363281	538.43603515625	967.1380004882812	-169.5899810791016	606.4237060546875	937.0800170898438	-159.1351623535156	647.1707763671875	1051.273559570312	-193.7115020751953	511.5856018066406	821.5781860351562	-111.9652633666992	586.7971801757812	871.3341064453125	-130.1633605957031	517.860107421875	895.3585205078125	-127.0958557128906	308.5836486816406	1429.041625976562	-574.5611572265625	275.4605407714844	1367.233276367188	-644.6546630859375	251.8532104492188	1072.737670898438	-670.106201171875	315.4752197265625	1059.929077148438	-688.0382690429688	249.2975311279297	883.4822998046875	-534.2645874023438	236.9461212158203	856.7055053710938	-617.6791381835938	246.8053588867188	1013.378051757812	-665.4526977539062	248.3378753662109	728.888671875	-515.46435546875	237.8291778564453	788.1569213867188	-514.1720581054688	234.7126159667969	773.2684326171875	-590.3768310546875	297.4024353027344	1641.508911132812	-490.3967895507812	329.4532470703125	1660.952514648438	-286.7599182128906	229.8652648925781	1645.435424804688	-369.8893127441406	441.5419921875	1669.147094726562	-390.2020874023438	596.1378784179688	916.8174438476562	-262.2129821777344	418.5460510253906	845.320556640625	-610.669677734375	354.2702026367188	884.821533203125	-508.2298278808594	477.6710510253906	933.2382202148438	-296.6941528320312	528.0509033203125	518.8944702148438	-161.2651824951172	511.6641845703125	672.3721313476562	-165.1509094238281	884.036376953125	357.2833251953125	-341.8066101074219	663.50830078125	440.3051452636719	-207.9919738769531	747.9669189453125	180.1643676757812	-257.8420104980469	760.8831787109375	221.7458343505859	-326.7092590332031	825.9981689453125	259.0852355957031	-243.9276428222656	866.38232421875	369.6028137207031	-416.6204223632812	488.9797973632812	464.8711547851562	-517.67138671875	404.73291015625	708.1770629882812	-573.4946899414062	677.2781372070312	82.74128723144531	-544.6134033203125	532.4813232421875	324.1959838867188	-512.3754272460938	595.0473022460938	40.12817764282227	-355.2373352050781	654.386962890625	51.30733871459961	-383.1682739257812	582.8692016601562	36.99195098876953	-465.060791015625	750.9113159179688	116.3204116821289	-563.376220703125	
318	3.17	573.9773559570312	985.8950805664062	-568.4432373046875	648.4920654296875	1000.595520019531	-445.5158386230469	567.2420654296875	1088.286743164062	-521.3637084960938	327.22607421875	1251.752075195312	-350.8385925292969	555.9527587890625	1208.377563476562	-536.494873046875	464.7965087890625	1468.347290039062	-498.5901794433594	346.7157897949219	1367.197509765625	-368.634521484375	464.5451354980469	1350.069946289062	-612.848388671875	560.0289916992188	1427.60107421875	-450.4549255371094	537.6383056640625	1442.25244140625	-324.6683349609375	633.4371337890625	1336.3349609375	-267.54931640625	670.8485107421875	1128.293212890625	-225.1201171875	677.577880859375	1101.703857421875	-325.0028686523438	537.5538940429688	962.763427734375	-167.9147796630859	605.7496948242188	933.2388916015625	-157.1204528808594	645.5549926757812	1048.365966796875	-189.2509918212891	511.6620178222656	816.3085327148438	-112.3586273193359	586.5716552734375	867.00634765625	-129.2211151123047	517.3145751953125	890.322509765625	-126.5364151000977	316.4988708496094	1429.627685546875	-577.2940063476562	285.6935119628906	1368.125854492188	-648.6956176757812	260.8086547851562	1074.108520507812	-676.2367553710938	325.1023254394531	1061.030029296875	-691.8199462890625	251.1092376708984	883.5856323242188	-542.6976318359375	242.3460388183594	857.9042358398438	-626.8394775390625	255.1549987792969	1014.782592773438	-672.4080200195312	247.8650512695312	728.751708984375	-525.9945678710938	237.9063873291016	788.0442504882812	-524.3823852539062	238.0119323730469	774.1975708007812	-600.8306274414062	302.6452026367188	1641.727783203125	-492.0787658691406	328.8148498535156	1660.217651367188	-287.5	231.6165924072266	1645.247680664062	-373.5830383300781	443.8572082519531	1668.697021484375	-387.5681457519531	591.2679443359375	914.7062377929688	-257.2975463867188	426.4285278320312	846.52197265625	-612.5103759765625	359.0066223144531	885.790283203125	-512.42578125	474.77001953125	932.5770263671875	-296.4659118652344	512.8364868164062	516.6871948242188	-162.9738311767578	498.2352294921875	670.528564453125	-166.6337432861328	873.172607421875	345.8685302734375	-325.9052429199219	648.6917724609375	435.0905151367188	-203.0310821533203	728.5650024414062	173.0708312988281	-247.09619140625	746.3617553710938	213.5681610107422	-315.8991088867188	808.1708984375	249.9364013671875	-230.21142578125	859.369873046875	358.0628967285156	-401.4272766113281	490.7041931152344	465.1064758300781	-519.29443359375	410.1134338378906	709.4627685546875	-576.09716796875	677.8065795898438	82.05552673339844	-544.7154541015625	533.4728393554688	324.0486450195312	-513.5657958984375	594.9293823242188	40.15046310424805	-355.3445739746094	654.2521362304688	51.36000061035156	-383.3187561035156	582.9049072265625	36.89908981323242	-465.3822326660156	751.5983276367188	115.3822860717773	-563.2637329101562	
319	3.18	581.0875244140625	985.9208374023438	-564.465087890625	651.663818359375	999.3117065429688	-438.9291687011719	572.8317260742188	1088.795288085938	-517.1564331054688	327.6342163085938	1251.468383789062	-354.0017395019531	562.13427734375	1208.622192382812	-532.446044921875	469.9266357421875	1468.47021484375	-496.0549011230469	347.9458312988281	1366.8974609375	-370.5226440429688	473.2628479003906	1350.814697265625	-610.915283203125	563.5665283203125	1427.298583984375	-445.2727661132812	537.4688720703125	1441.212036132812	-320.1379699707031	631.5131225585938	1334.730346679688	-261.0811462402344	668.4800415039062	1126.324462890625	-219.2550811767578	677.353271484375	1100.807739257812	-319.1537780761719	536.4613647460938	958.4352416992188	-166.2380523681641	604.8818359375	929.5130615234375	-155.0791778564453	643.56787109375	1045.605346679688	-184.7599639892578	511.7370910644531	811.0202026367188	-112.8933029174805	586.2512817382812	862.7538452148438	-128.3223419189453	516.6521606445312	885.2674560546875	-126.0401153564453	324.184814453125	1430.288208007812	-579.6856079101562	295.7243957519531	1369.111938476562	-652.3282470703125	269.8471374511719	1075.627563476562	-682.2645874023438	334.7088623046875	1062.212158203125	-695.34716796875	252.9340972900391	883.905029296875	-551.2742309570312	247.961669921875	859.2760620117188	-636.0245971679688	263.5933837890625	1016.339599609375	-679.2814331054688	247.4824676513672	728.8770141601562	-536.8402099609375	238.0070648193359	788.2073974609375	-534.863037109375	241.5964050292969	775.3591918945312	-611.4402465820312	307.74609375	1642.011840820312	-493.592529296875	328.0387268066406	1659.558715820312	-288.245849609375	233.3051147460938	1645.124267578125	-377.2146606445312	445.909912109375	1668.330444335938	-384.8762512207031	586.6303100585938	912.8807983398438	-253.0311737060547	433.8025207519531	847.6351928710938	-614.048095703125	363.6189575195312	886.8499145507812	-516.263916015625	472.1351928710938	932.1797485351562	-296.4497375488281	497.8393249511719	515.1514892578125	-165.2376556396484	485.3085327148438	669.2991333007812	-168.7334899902344	860.8240356445312	334.053466796875	-310.5651550292969	633.4692993164062	430.2413940429688	-198.6371765136719	707.797119140625	166.1726989746094	-236.9052734375	730.3616943359375	205.3626098632812	-305.4431762695312	788.9573974609375	240.8190155029297	-217.1636047363281	850.8274536132812	345.9701538085938	-386.6264038085938	492.1690979003906	465.396728515625	-520.6483154296875	415.1176147460938	710.7233276367188	-578.4063720703125	678.2154541015625	81.53514862060547	-544.7674560546875	534.2593994140625	323.9837951660156	-514.599365234375	594.8092041015625	40.16913223266602	-355.4407043457031	654.0872802734375	51.41849899291992	-383.4335327148438	582.845947265625	36.8650016784668	-465.6329040527344	752.15234375	114.695198059082	-563.10986328125	
320	3.19	587.5802001953125	985.95361328125	-560.7667846679688	654.4324951171875	998.1639404296875	-432.9431457519531	577.9739990234375	1089.311279296875	-513.1904907226562	328.113037109375	1251.295532226562	-357.0460205078125	567.9530029296875	1208.995971679688	-528.4712524414062	474.7941284179688	1468.7001953125	-493.4465942382812	349.1490478515625	1366.710083007812	-372.3466796875	481.6112976074219	1351.666381835938	-608.8060913085938	566.80322265625	1427.122314453125	-440.0886840820312	537.0376586914062	1440.323486328125	-315.7174377441406	629.1923217773438	1333.288940429688	-254.6519470214844	665.6248779296875	1124.518188476562	-213.3790588378906	676.7634887695312	1100.065307617188	-313.2148132324219	535.1322021484375	954.1842651367188	-164.5838775634766	603.7871704101562	925.9408569335938	-152.9963226318359	641.1845703125	1043.019775390625	-180.2501678466797	511.7744445800781	805.7606811523438	-113.579475402832	585.7935791015625	858.6251220703125	-127.4425811767578	515.8355102539062	880.236572265625	-125.6280212402344	331.6307373046875	1431.04150390625	-581.739501953125	305.510498046875	1370.210693359375	-655.5488891601562	278.9536743164062	1077.3271484375	-688.174072265625	344.2560119628906	1063.47705078125	-698.5986328125	254.8507537841797	884.462646484375	-559.9935913085938	253.8046417236328	860.8356323242188	-645.2001342773438	272.1079406738281	1018.068115234375	-686.0497436523438	247.2570343017578	729.2997436523438	-547.9435424804688	238.2068786621094	788.6924438476562	-545.5738525390625	245.5006408691406	776.7725830078125	-622.141845703125	312.718505859375	1642.3544921875	-494.9502563476562	327.1051330566406	1658.97998046875	-289.0084228515625	234.9237670898438	1645.051513671875	-380.8032531738281	447.69677734375	1668.062622070312	-382.1296691894531	582.267333984375	911.3826293945312	-249.3829193115234	440.6398010253906	848.6350708007812	-615.3297729492188	368.0533447265625	887.9666748046875	-519.7431640625	469.76025390625	932.0700073242188	-296.6253051757812	483.1463012695312	514.2997436523438	-167.9939422607422	472.9752502441406	668.6885375976562	-171.3565673828125	847.0247192382812	321.9310913085938	-295.8673095703125	617.9108276367188	425.79638671875	-194.8067321777344	685.74658203125	159.5690612792969	-227.3386688232422	712.8850708007812	197.2323760986328	-295.4109497070312	768.4201049804688	231.8325042724609	-204.8475341796875	840.7427368164062	333.4111633300781	-372.3168029785156	493.4227294921875	465.7182922363281	-521.7099609375	419.7815551757812	711.917236328125	-580.4529418945312	678.6180419921875	81.20828247070312	-544.7055053710938	534.9142456054688	323.9876403808594	-515.4478759765625	594.678466796875	40.18229293823242	-355.5332641601562	653.9032592773438	51.46364212036133	-383.4785461425781	582.775634765625	36.88719177246094	-465.8365478515625	752.7053833007812	114.2944488525391	-562.7980346679688	
